<svg width="54" height="57" viewBox="0 0 54 57" fill="none" xmlns="http://www.w3.org/2000/svg">
<path d="M36.2577 21.0505C31.9206 16.8048 25.0388 16.8048 20.7227 21.0505C16.4277 25.3666 16.505 32.389 20.7719 36.7051C25.0388 41.0212 32.033 41.0704 36.328 36.7543C36.3983 36.684 36.7006 36.3606 37.2489 35.7772L32.0822 30.5614C31.5691 31.194 31.2598 31.5174 31.2317 31.5174C29.7696 32.9795 27.4077 32.9795 25.9456 31.5174C24.4834 30.0552 24.4834 27.6652 25.8963 26.2312C27.3093 24.8183 29.6782 24.8183 31.1544 26.2804C31.1544 26.2804 35.7797 30.9058 45.0023 40.1776C41.2064 45.6817 34.8448 49.1612 27.9981 49.1612C16.6597 49.1612 7.44409 39.8683 7.44409 28.3893C7.44409 16.9102 16.6667 7.63137 27.9981 7.63137C34.6199 7.63137 40.7003 10.8227 44.4751 16.0386C43.8636 16.7415 42.3101 18.527 39.8006 21.395L44.918 26.5124L53.3955 16.9102C48.981 6.92139 39.0836 0.292641 27.97 0.292641C12.5967 0.292641 0.112396 12.8964 0.112396 28.4033C0.112396 43.9103 12.5685 56.5421 27.97 56.5421C34.9643 56.5421 40.7636 54.3279 46.4223 49.4776C51.5608 45.0912 54 38.9897 54 38.9897L36.2577 21.0505Z" fill="url(#paint0_linear_1_421)"/>
<defs>
<linearGradient id="paint0_linear_1_421" x1="56.7928" y1="54.3819" x2="-11.2237" y2="-12.0151" gradientUnits="userSpaceOnUse">
<stop stop-color="#DB24E2"/>
<stop offset="1" stop-color="#4B17F5"/>
</linearGradient>
</defs>
</svg>
